Coordinates
version=1
nRows=5
nColumns=46
inDegrees=yes

Units are S.I. units (second, meters, Newtons, ...)
Angles are in degrees.

endheader
time	pelvis_tilt	pelvis_list	pelvis_rotation	pelvis_tx	pelvis_ty	pelvis_tz	bb_angle	bb_tx	bb_ty	bb_tz	hip_flexion_r	hip_adduction_r	hip_rotation_r	knee_angle_r	knee_angle_r_beta	ankle_angle_r	subtalar_angle_r	mtp_angle_r	crank_angle_r	hip_flexion_l	hip_adduction_l	hip_rotation_l	knee_angle_l	knee_angle_l_beta	ankle_angle_l	subtalar_angle_l	mtp_angle_l	crank_angle_l	lumbar_extension	lumbar_bending	lumbar_rotation	arm_flex_r	arm_add_r	arm_rot_r	elbow_flex_r	pro_sup_r	wrist_flex_r	wrist_dev_r	arm_flex_l	arm_add_l	arm_rot_l	elbow_flex_l	pro_sup_l	wrist_flex_l	wrist_dev_l
      2.50000000	    -25.03966913	     -0.73297992	      0.41293893	      0.03541644	      1.01519356	     -0.20569828	      0.00000000	      0.50000000	      0.00000000	      0.25000000	     68.44459455	     -6.85520800	     -1.98947970	     80.78282565	      1.40992629	     -8.26717459	     -7.64699807	      0.00000000	      0.00000000	     79.11218654	     -4.58616301	      3.47211752	     59.22987908	      1.03375641	      9.24662681	    -15.53599095	      0.00000000	      0.00000000	    -46.14838276	     -8.51241771	      0.55575181	     89.49082636	    -12.67080752	     26.85212575	     35.03175879	     37.14314766	      0.00000000	      0.00000000	     89.57719098	      1.33101407	     22.65490194	     48.43595051	     36.86247276	      0.00000000	      0.00000000
      2.50500000	    -25.09440988	     -0.95561590	      0.19951427	      0.03633107	      1.01551292	     -0.20558539	      0.00000000	      0.50000000	      0.00000000	      0.25000000	     68.84475643	     -6.67932167	     -2.13281104	     81.68230895	      1.42562523	     -7.85849632	     -7.67390023	      0.00000000	      0.00000000	     78.50782706	     -4.88846320	      3.48158217	     58.13691703	      1.01468062	      8.39296857	    -15.57376765	      0.00000000	      0.00000000	    -46.13684229	     -8.48813406	      0.97773118	     89.46732570	    -12.89134441	     26.61971349	     35.28053225	     37.36484181	      0.00000000	      0.00000000	     89.56502181	      1.52231350	     22.73507806	     48.53120048	     37.13621633	      0.00000000	      0.00000000
      2.51000000	    -25.21011676	     -1.18695454	      0.07239682	      0.03716298	      1.01567896	     -0.20558949	      0.00000000	      0.50000000	      0.00000000	      0.25000000	     69.33813020	     -6.57970078	     -2.24607418	     82.64565254	      1.44243875	     -7.15801352	     -7.15824458	      0.00000000	      0.00000000	     77.98343543	     -5.09373284	      3.61052253	     57.05469891	      0.99579235	      7.52214167	    -15.49799960	      0.00000000	      0.00000000	    -45.96871897	     -8.31002053	      1.15546789	     89.46621107	    -12.77003182	     27.35553492	     34.98722560	     37.35315004	      0.00000000	      0.00000000	     89.55745682	      1.23037982	     23.00170319	     48.33053302	     37.06359606	      0.00000000	      0.00000000
      2.51500000	    -25.16193553	     -1.35139208	     -0.08524121	      0.03817603	      1.01627381	     -0.20564310	      0.00000000	      0.50000000	      0.00000000	      0.25000000	     69.64963256	     -6.48394588	     -2.33928849	     83.54352399	      1.45810956	     -6.80781429	     -7.20429630	      0.00000000	      0.00000000	     77.21224979	     -5.31828748	      3.57180859	     55.91152507	      0.97584020	      6.66173711	    -15.52493128	      0.00000000	      0.00000000	    -46.10688754	     -8.31336369	      1.45354505	     89.44211618	    -13.02716645	     27.00848578	     35.34771690	     37.53825249	      0.00000000	      0.00000000	     89.54712513	      1.36911546	     23.04258307	     48.50223168	     37.31762238	      0.00000000	      0.00000000
      2.52000000	    -25.29185766	     -1.68753510	     -0.26749829	      0.03903924	      1.01638913	     -0.20568760	      0.00000000	      0.50000000	      0.00000000	      0.25000000	     70.14460896	     -6.24969181	     -2.51001394	     84.46478511	      1.47418860	     -6.15859436	     -6.83266211	      0.00000000	      0.00000000	     76.73417656	     -5.62030255	      3.74982710	     54.89486546	      0.95809614	      5.73775339	    -15.42081799	      0.00000000	      0.00000000	    -45.88385952	     -8.06630008	      1.70235955	     89.44266886	    -12.86913276	     27.71676163	     34.98716627	     37.42140663	      0.00000000	      0.00000000	     89.53735140	      1.02430383	     23.43353368	     48.21661566	     37.15942169	      0.00000000	      0.00000000
